<svg width="32" height="32" viewBox="0 0 32 32" fill="none" xmlns="http://www.w3.org/2000/svg">
<path d="M16 5.33333C17.4145 5.33333 18.7711 5.89523 19.7713 6.89543C20.7715 7.89562 21.3334 9.25218 21.3334 10.6667C21.3334 12.0812 20.7715 13.4377 19.7713 14.4379C18.7711 15.4381 17.4145 16 16 16C14.5856 16 13.229 15.4381 12.2288 14.4379C11.2286 13.4377 10.6667 12.0812 10.6667 10.6667C10.6667 9.25218 11.2286 7.89562 12.2288 6.89543C13.229 5.89523 14.5856 5.33333 16 5.33333ZM16 26.6667C16 26.6667 26.6667 26.6667 26.6667 24C26.6667 20.8 21.4667 17.3333 16 17.3333C10.5334 17.3333 5.33337 20.8 5.33337 24C5.33337 26.6667 16 26.6667 16 26.6667Z" fill="#1E1E1E"/>
</svg>
