<svg width="32" height="32" viewBox="0 0 32 32" fill="none" xmlns="http://www.w3.org/2000/svg">
<path fill-rule="evenodd" clip-rule="evenodd" d="M11.224 4.33333C11.5974 3.54667 12.4027 3 13.3334 3H18.6667C19.5974 3 20.4014 3.54667 20.776 4.33333C21.6867 4.34133 22.3974 4.38267 23.032 4.63067C23.7897 4.92703 24.4486 5.43068 24.9334 6.084C25.4227 6.74267 25.6534 7.58667 25.968 8.748L26.9574 12.3773L27.3307 13.4987L27.3627 13.5387C28.564 15.0773 27.992 17.3653 26.848 21.94C26.12 24.8507 25.7574 26.3053 24.672 27.1533C23.5867 28 22.0867 28 19.0867 28H12.9134C9.91338 28 8.41338 28 7.32804 27.1533C6.24271 26.3053 5.87871 24.8507 5.15204 21.94C4.00804 17.3653 3.43604 15.0773 4.63738 13.5387L4.66938 13.4987L5.04271 12.3773L6.03204 8.748C6.34804 7.58667 6.57871 6.74133 7.06671 6.08267C7.55168 5.42984 8.21057 4.92666 8.96804 4.63067C9.60271 4.38267 10.312 4.34 11.224 4.33333ZM11.2267 6.33733C10.344 6.34667 9.98938 6.38 9.69604 6.49467C9.288 6.65424 8.93313 6.92548 8.67204 7.27733C8.43738 7.59333 8.29871 8.03467 7.91204 9.45733L7.15204 12.2427C8.51204 12 10.3707 12 12.912 12H19.0867C21.6294 12 23.4867 12 24.8467 12.24L24.088 9.45467C23.7014 8.032 23.5627 7.59067 23.328 7.27467C23.067 6.92281 22.7121 6.65157 22.304 6.492C22.0107 6.37733 21.656 6.344 20.7734 6.33467C20.5841 6.73313 20.2857 7.06976 19.9128 7.30552C19.5399 7.54128 19.1079 7.6665 18.6667 7.66667H13.3334C12.8924 7.66662 12.4604 7.54159 12.0875 7.30608C11.7147 7.07057 11.4162 6.73555 11.2267 6.33733Z" fill="#1E1E1E"/>
<circle cx="25" cy="5" r="3" fill="#FEA500"/>
</svg>
